<?xml version="1.0" encoding="UTF-8"?>
<svg version="1.1" viewBox="0 0 2000 2000" width="1280" height="1280" xmlns="http://www.w3.org/2000/svg">
<path transform="translate(420,723)" d="m0 0h23l8 4 13 12 44 44v2l4 2v2l4 2v2l4 2v2l4 2v2l4 2v2h2v2h2l4 4v2h2v2h2l6 7 6 5 4 4v2l4 2 4 4v2h2v2h2v2l4 2 12 12 4-2 58-58 9-5 8-2h9l12 3 9 7 7 10 3 9v13l-5 12-8 10-6 5-6 7-6 5-6 7-6 5-6 7-6 5-6 7-6 5-6 7-6 5-6 7-6 5-6 7-9 9h-2l-1 3-6 5-6 7-6 5-7 8-8 8h-2l-1 3-6 5-6 7-13 13h-2l-1 3-6 5-8 8 2 4 125 125 6 9 3 8v14l-3 9-7 10-11 7-10 3h-9l-12-4-9-7-124-124v-2l-7 4-6 7-7 6-5 6-7 6-5 6-20 20-9 7-8 4-5 1h-13l-11-4-10-9-5-8-2-6v-16l4-10 10-12 7-6 1-2h2v-2h2v-2h2v-2l4-4h2v-2h2l2-4h2l2-4 8-8h2l2-4h2l2-4h2l2-4h2l2-4 16-16h2l2-4h2l2-4 4-4h2l2-4 20-20h2l2-4h2l2-4h2l2-4 10-10h2v-2l8-7 17-17 7-8 7-7h2l2-4v-4l-129-129-6-10-2-8 1-11 4-11 7-9 10-6z" fill="#FEFEFE"/>
<path transform="translate(1433,815)" d="m0 0h43l8 2 6 8 11 23 16 36 18 39 13 29 18 40 12 26 3 1 1-200 1-3 4-1h33l7 1 1 2v259l-2 6-4 5-4 2h-52l-7-3-6-10-12-25-13-29-17-37-9-20-16-35-13-28-4-8-3-2-1 194-5 3h-36l-4-3v-263l6-7z" fill="#FEFEFE"/>
<path transform="translate(1155,812)" d="m0 0h17l12 2 14 7 9 8 6 10 5 15 21 81 21 80 17 65v8l-4 2h-45l-4-8-17-68h-84l-4 15-12 50-4 9-2 2h-46l-2-1-1-5 11-43 24-92 12-45 13-51 6-16 6-9 10-9 11-5zm7 43-3 6-27 108v2l63 1 2-1-1-8-24-99-3-8z" fill="#FEFEFE"/>
<path transform="translate(935,812)" d="m0 0h25l29 2 28 4 7 3 1 1v35l-1 2h-22l-34-2h-33l-10 2-10 5-5 6-2 5-1 10 3 10 9 9 14 9 26 14 23 13 18 12 13 11 8 10 8 16 3 12 1 9v13l-3 16-5 13-10 14-11 10-15 8-18 6-21 3h-35l-30-3-18-4-4-3v-33l1-3 2-1 25 1 17 1h44l12-4 6-4 5-6 3-10v-16l-5-9-10-9-17-11-50-30-14-10-10-9-8-11-5-10-4-16v-19l3-15 5-12 6-9 7-7 11-7 10-5 19-5z" fill="#FEFEFE"/>
<path transform="translate(1319,815)" d="m0 0h36l7 1 2 3v266l-2 4-3 1h-42l-4-4-1-6v-255l1-7 2-2z" fill="#FEFEFE"/>
<path transform="translate(774,956)" d="m0 0h14l9 3 9 6 7 9 4 12v9l-4 13-8 10-102 102-10 6-8 2h-11l-11-3-9-7-7-10-3-11v-9l3-10 6-9 106-106 8-5z" fill="#FEFEFE"/>
<path transform="translate(367,813)" d="m0 0 13 1 10 5 7 6 6 10 2 6v14l-3 9-7 10-104 104-8 5-10 3h-9l-9-2-10-6-7-8-4-8-1-4v-15l5-12 11-12 98-98 10-6z" fill="#FEFEFE"/>
<path transform="translate(1690,815)" d="m0 0h37l7 2 1 2v266l-2 4-3 1h-42l-4-4v-268l2-2z" fill="#FEFEFE"/>
</svg>
